<?xml version="1.0" encoding="UTF-8" standalone="no"?>
<!DOCTYPE svg PUBLIC "-//W3C//DTD SVG 1.1//EN" "http://www.w3.org/Graphics/SVG/1.1/DTD/svg11.dtd">
<svg xmlns="http://www.w3.org/2000/svg" version="1.1" viewBox="0.00 0.00 614.00 406.00">
<path fill="#4d321f" d="
  M 263.48 99.85
  Q 268.38 96.13 272.43 91.60
  C 276.26 87.32 282.91 86.27 288.33 86.85
  Q 294.49 87.50 300.72 88.25
  Q 301.33 88.33 301.73 87.86
  Q 306.05 82.78 311.76 79.96
  A 1.07 1.06 -22.2 0 1 313.25 80.58
  Q 314.38 84.08 316.01 87.16
  Q 319.31 93.39 322.99 99.63
  Q 323.32 100.19 322.88 100.67
  Q 320.59 103.19 317.79 104.96
  Q 316.67 105.67 317.28 106.85
  L 317.57 107.41
  Q 318.25 108.74 319.49 107.90
  C 321.28 106.67 322.92 105.22 324.36 103.60
  Q 324.88 103.02 325.26 103.70
  C 327.52 107.79 329.45 112.09 332.44 115.74
  Q 335.74 119.77 338.84 123.85
  Q 339.52 124.76 338.39 124.70
  Q 336.46 124.59 336.26 126.48
  A 1.29 1.29 0.0 0 0 337.87 127.86
  L 342.01 126.77
  A 1.64 1.64 0.0 0 1 343.29 126.96
  L 351.34 131.96
  Q 352.13 132.45 351.22 132.60
  L 348.75 133.02
  A 0.97 0.96 -23.4 0 0 348.14 134.55
  Q 349.50 136.35 351.30 135.39
  C 352.59 134.71 353.69 134.74 355.07 134.55
  Q 355.62 134.47 356.11 134.73
  L 363.28 138.46
  Q 364.01 138.83 363.27 139.18
  Q 361.68 139.93 361.72 141.59
  Q 361.73 142.15 362.28 142.28
  Q 364.67 142.85 366.47 141.23
  A 2.07 2.06 -52.6 0 1 368.75 140.92
  Q 372.84 142.94 377.98 144.18
  Q 378.96 144.42 377.96 144.57
  L 375.26 144.98
  A 0.96 0.96 0.0 0 0 374.63 146.51
  Q 375.29 147.40 376.42 147.39
  Q 379.43 147.39 382.85 146.91
  A 0.62 0.61 64.7 0 0 383.21 145.89
  Q 382.02 144.59 380.24 144.38
  Q 379.44 144.28 380.16 143.93
  Q 382.96 142.57 384.73 144.40
  Q 387.47 147.24 391.27 148.36
  Q 401.88 151.49 409.56 154.23
  Q 412.38 155.23 414.55 157.43
  C 417.46 160.38 417.74 166.25 414.92 169.18
  Q 412.85 171.32 409.35 172.17
  Q 402.86 173.73 396.94 174.17
  Q 392.14 174.54 387.57 175.21
  Q 373.55 177.27 359.28 175.88
  Q 354.83 175.45 350.03 174.09
  Q 344.34 172.47 337.97 172.54
  Q 337.01 172.56 337.20 173.50
  C 338.64 180.71 336.26 184.63 328.97 185.98
  Q 314.65 188.64 300.64 188.15
  Q 286.74 187.66 272.94 187.23
  C 269.86 187.14 266.91 186.74 263.88 186.27
  Q 262.07 185.99 260.36 185.24
  Q 253.19 182.08 246.26 178.86
  Q 243.57 177.62 240.75 177.35
  Q 231.28 176.46 222.91 176.35
  C 218.22 176.29 214.33 174.92 209.95 173.25
  C 204.41 171.13 201.61 166.21 200.82 160.82
  Q 199.96 155.02 199.68 148.54
  C 199.53 145.12 200.23 141.43 201.50 138.26
  C 202.88 134.82 204.57 129.70 203.37 126.15
  C 201.95 121.98 202.78 116.35 203.68 112.06
  Q 204.17 109.77 203.83 107.34
  C 203.52 105.16 202.79 102.77 203.14 100.59
  C 203.88 95.90 208.16 87.89 214.01 88.81
  C 217.25 89.32 219.84 87.99 223.03 88.55
  Q 227.05 89.25 230.82 90.17
  Q 231.30 90.29 231.71 90.02
  Q 238.33 85.79 246.61 85.22
  Q 250.43 84.95 251.49 88.15
  Q 251.65 88.65 252.17 88.72
  C 259.08 89.73 260.30 94.18 262.70 99.65
  Q 262.96 100.23 263.48 99.85
  Z
  M 261.95 114.99
  Q 258.96 115.18 261.54 113.63
  Q 264.88 111.62 263.34 109.19
  C 263.04 108.71 262.53 108.46 262.21 108.02
  Q 261.77 107.43 262.42 107.08
  L 264.68 105.84
  Q 265.18 105.57 265.65 105.88
  Q 266.36 106.35 266.74 107.07
  Q 266.96 107.49 267.37 107.24
  C 268.94 106.30 268.18 103.85 267.28 102.70
  A 1.39 1.38 61.0 0 0 265.72 102.25
  L 259.76 104.34
  Q 259.03 104.60 259.39 105.29
  Q 260.21 106.85 261.44 108.04
  Q 261.93 108.51 261.39 108.93
  L 255.54 113.37
  Q 255.02 113.77 254.36 113.77
  L 249.28 113.73
  Q 248.55 113.72 248.56 112.99
  Q 248.57 110.95 247.71 109.11
  C 245.95 105.32 239.16 107.75 236.44 109.43
  Q 235.43 110.06 235.68 111.54
  Q 235.79 112.25 236.74 112.49
  A 1.52 1.51 -58.5 0 0 238.14 112.15
  Q 240.68 109.86 245.10 110.55
  Q 247.13 110.87 247.39 112.85
  A 1.59 1.55 24.1 0 0 247.68 113.58
  L 252.32 119.74
  Q 252.85 120.45 251.97 120.51
  L 248.19 120.78
  Q 246.72 120.89 246.49 122.34
  Q 246.38 123.04 247.53 123.68
  A 1.36 1.28 55.7 0 0 248.31 123.85
  Q 254.48 123.27 260.85 125.40
  Q 261.48 125.61 261.05 126.11
  L 259.43 128.01
  Q 258.95 128.58 259.47 129.11
  L 260.20 129.85
  Q 260.87 130.53 259.92 130.60
  Q 258.43 130.73 257.20 131.27
  Q 256.14 131.73 256.61 132.78
  L 256.73 133.04
  Q 257.38 134.51 258.91 134.01
  C 262.66 132.80 266.52 134.45 270.08 135.61
  Q 270.76 135.83 270.33 136.39
  L 269.26 137.78
  Q 268.97 138.15 269.31 138.48
  L 270.72 139.81
  A 0.47 0.47 0.0 0 1 270.42 140.62
  Q 268.36 140.73 266.94 141.91
  A 0.59 0.58 54.4 0 0 266.82 142.66
  Q 267.58 143.92 269.08 143.70
  Q 274.45 142.91 279.02 144.61
  Q 279.56 144.81 279.30 145.33
  Q 278.19 147.49 277.07 149.54
  C 276.54 150.51 276.68 151.63 277.82 152.07
  A 1.65 1.64 41.5 0 0 279.18 151.99
  C 281.14 150.93 283.54 150.18 285.62 151.50
  Q 288.18 153.15 291.07 154.39
  Q 291.57 154.60 291.95 154.22
  C 293.56 152.58 295.16 149.83 292.14 148.31
  Q 291.45 147.96 291.28 148.71
  Q 291.07 149.63 290.29 149.98
  A 1.20 1.19 44.1 0 1 289.28 149.99
  Q 285.34 148.28 281.98 148.48
  Q 281.41 148.51 281.47 147.94
  Q 281.56 147.00 282.04 146.29
  A 0.70 0.70 0.0 0 1 282.90 146.05
  Q 284.68 146.88 286.47 147.52
  C 286.76 147.63 287.23 147.59 287.52 147.51
  A 0.36 0.36 0.0 0 0 287.63 146.86
  L 283.44 144.02
  A 0.56 0.54 29.2 0 1 283.24 143.35
  L 284.34 140.85
  Q 284.96 139.45 283.74 138.52
  L 283.30 138.19
  Q 282.16 137.32 281.63 138.66
  L 280.43 141.75
  Q 280.21 142.31 279.65 142.09
  Q 276.40 140.79 272.65 140.50
  Q 271.89 140.44 272.28 139.79
  L 273.47 137.77
  Q 274.22 136.50 275.37 137.43
  Q 277.02 138.75 278.72 139.74
  Q 280.10 140.54 279.38 139.12
  Q 278.21 136.79 275.23 135.75
  A 0.87 0.87 0.0 0 1 274.77 134.49
  L 276.57 131.49
  Q 277.20 130.44 276.44 129.50
  Q 276.21 129.22 275.96 128.97
  Q 274.89 127.93 274.19 129.26
  L 272.15 133.18
  Q 271.84 133.77 271.26 133.45
  Q 267.11 131.20 262.38 130.63
  A 0.40 0.40 0.0 0 1 262.15 129.95
  L 271.43 121.13
  Q 272.07 120.52 271.71 119.71
  L 271.05 118.26
  Q 270.59 117.24 269.83 118.07
  Q 268.77 119.24 267.49 119.95
  Q 267.10 120.16 267.08 119.71
  C 266.96 116.72 265.05 114.79 261.95 114.99
  Z
  M 333.41 119.49
  A 0.32 0.32 0.0 0 0 333.64 118.93
  L 331.15 116.76
  A 0.32 0.32 0.0 0 0 330.92 116.68
  L 326.92 116.93
  A 0.32 0.32 0.0 0 0 326.63 117.33
  L 327.05 118.88
  A 0.32 0.32 0.0 0 0 327.34 119.11
  L 333.41 119.49
  Z
  M 259.26 183.89
  Q 260.56 184.47 261.84 184.80
  Q 263.75 185.30 262.69 183.64
  C 261.82 182.29 261.38 180.95 261.76 179.34
  C 262.76 175.12 263.17 169.21 260.82 165.58
  Q 257.67 160.74 252.97 155.51
  Q 243.23 144.70 233.33 134.81
  Q 231.01 132.49 228.34 131.08
  Q 222.71 128.11 217.52 125.39
  Q 214.23 123.66 212.21 126.14
  C 211.60 126.90 211.41 128.40 211.00 129.36
  Q 210.52 130.49 210.39 131.73
  Q 209.84 137.01 209.12 142.23
  Q 208.92 143.71 209.49 145.17
  Q 211.12 149.34 212.74 152.98
  C 215.99 160.26 223.63 168.04 229.42 174.35
  Q 230.46 175.49 232.00 175.46
  Q 240.27 175.35 247.36 178.53
  Q 252.94 181.04 259.26 183.89
  Z
  M 331.01 166.28
  C 332.95 167.26 334.71 168.91 335.75 170.82
  A 0.90 0.90 0.0 0 0 336.48 171.28
  Q 346.26 171.92 356.87 174.70
  A 0.65 0.64 -78.9 0 0 357.67 174.16
  C 358.58 167.44 357.72 161.33 351.93 157.03
  Q 338.30 146.89 325.19 137.04
  C 320.44 133.47 314.88 130.59 309.19 129.31
  Q 301.08 127.48 293.06 126.06
  Q 286.47 124.90 285.38 131.36
  Q 284.68 135.46 285.62 140.73
  Q 285.72 141.29 286.14 141.68
  Q 290.29 145.54 294.32 149.06
  C 295.62 150.19 298.42 150.34 300.12 151.21
  C 305.86 154.13 311.42 157.59 317.50 160.09
  Q 324.26 162.87 331.01 166.28
  Z
  M 299.6344 156.5631
  A 1.25 1.25 0.0 0 0 298.3166 155.3848
  L 289.4704 155.8794
  A 1.25 1.25 0.0 0 0 288.2922 157.1973
  L 288.3056 157.4369
  A 1.25 1.25 0.0 0 0 289.6234 158.6152
  L 298.4696 158.1206
  A 1.25 1.25 0.0 0 0 299.6478 156.8027
  L 299.6344 156.5631
  Z"
/>
<path fill="#4d321f" d="
  M 256.72 117.63
  L 266.54 119.25
  A 0.32 0.32 0.0 0 1 266.74 119.76
  L 264.20 123.14
  A 0.32 0.32 0.0 0 1 263.84 123.25
  L 254.12 120.22
  A 0.32 0.32 0.0 0 1 254.02 119.66
  L 256.47 117.70
  A 0.32 0.32 0.0 0 1 256.72 117.63
  Z"
/>
<rect fill="#4d321f" x="131.69" y="201.90" width="353.26" height="4.84" rx="2.40"/>
<path fill="#4d321f" d="
  M 236.39 252.80
  C 237.38 251.91 237.91 250.45 238.88 249.48
  C 245.59 242.83 258.15 244.35 258.16 255.73
  Q 258.18 265.73 258.19 275.79
  Q 258.19 276.45 257.54 276.45
  L 252.78 276.48
  Q 252.26 276.48 252.25 275.96
  Q 252.20 267.78 252.27 258.31
  C 252.31 253.20 248.43 250.45 243.56 251.73
  Q 235.92 253.74 235.81 262.41
  Q 235.72 269.34 235.86 275.78
  Q 235.88 276.45 235.21 276.45
  L 230.72 276.46
  Q 229.98 276.46 229.98 275.72
  L 229.97 220.69
  Q 229.97 220.51 230.16 220.50
  L 235.52 220.48
  A 0.29 0.28 -90.0 0 1 235.80 220.77
  L 235.79 252.53
  Q 235.79 253.34 236.39 252.80
  Z"
/>
<path fill="#4d321f" d="
  M 140.04 231.66
  L 140.07 247.04
  A 0.43 0.43 0.0 0 0 140.50 247.47
  L 160.21 247.44
  A 0.43 0.43 0.0 0 1 160.64 247.87
  L 160.70 253.99
  A 0.43 0.43 0.0 0 1 160.27 254.42
  L 140.49 254.42
  A 0.43 0.43 0.0 0 0 140.06 254.85
  L 140.09 276.04
  A 0.43 0.43 0.0 0 1 139.66 276.47
  L 132.74 276.49
  A 0.43 0.43 0.0 0 1 132.31 276.06
  L 132.31 224.74
  A 0.43 0.43 0.0 0 1 132.74 224.31
  L 163.08 224.34
  A 0.43 0.43 0.0 0 1 163.51 224.77
  L 163.51 230.81
  A 0.43 0.43 0.0 0 1 163.08 231.24
  L 140.47 231.23
  A 0.43 0.43 0.0 0 0 140.04 231.66
  Z"
/>
<path fill="#4d321f" d="
  M 374.21 231.66
  L 374.20 247.04
  A 0.43 0.43 0.0 0 0 374.63 247.47
  L 394.25 247.45
  A 0.43 0.43 0.0 0 1 394.68 247.88
  L 394.69 253.98
  A 0.43 0.43 0.0 0 1 394.26 254.41
  L 374.64 254.40
  A 0.43 0.43 0.0 0 0 374.21 254.83
  L 374.21 276.02
  A 0.43 0.43 0.0 0 1 373.78 276.45
  L 366.92 276.45
  A 0.43 0.43 0.0 0 1 366.49 276.02
  L 366.49 224.78
  A 0.43 0.43 0.0 0 1 366.92 224.35
  L 397.12 224.32
  A 0.43 0.43 0.0 0 1 397.55 224.75
  L 397.57 230.81
  A 0.43 0.43 0.0 0 1 397.14 231.24
  L 374.64 231.23
  A 0.43 0.43 0.0 0 0 374.21 231.66
  Z"
/>
<circle fill="#4d321f" cx="269.86" cy="234.70" r="3.75"/>
<path fill="#4d321f" d="
  M 469.72 251.72
  L 465.26 251.75
  A 0.53 0.53 0.0 0 1 464.73 251.22
  L 464.73 247.05
  A 0.53 0.53 0.0 0 1 465.26 246.52
  L 469.70 246.51
  A 0.53 0.53 0.0 0 0 470.23 245.98
  L 470.25 233.66
  A 0.53 0.53 0.0 0 1 470.77 233.13
  L 475.49 233.09
  A 0.53 0.53 0.0 0 1 476.03 233.62
  L 475.98 246.00
  A 0.53 0.53 0.0 0 0 476.51 246.53
  L 483.68 246.52
  A 0.53 0.53 0.0 0 1 484.21 247.05
  L 484.23 251.21
  A 0.53 0.53 0.0 0 1 483.70 251.74
  L 476.52 251.74
  A 0.53 0.53 0.0 0 0 475.99 252.27
  L 476.03 275.91
  A 0.53 0.53 0.0 0 1 475.50 276.44
  L 470.76 276.46
  A 0.53 0.53 0.0 0 1 470.23 275.93
  L 470.25 252.25
  A 0.53 0.53 0.0 0 0 469.72 251.72
  Z"
/>
<path fill="#4d321f" d="
  M 190.53 250.04
  Q 190.86 248.76 190.69 247.34
  Q 190.58 246.43 191.50 246.42
  L 195.52 246.37
  Q 196.43 246.35 196.43 247.27
  L 196.44 275.76
  Q 196.44 276.46 195.74 276.46
  L 191.23 276.45
  Q 190.50 276.45 190.52 275.73
  L 190.57 273.74
  Q 190.60 272.34 189.61 273.33
  Q 186.25 276.71 181.26 276.90
  C 168.54 277.37 160.23 264.92 166.60 253.73
  C 171.33 245.42 183.22 242.21 190.04 250.15
  A 0.29 0.28 31.7 0 0 190.53 250.04
  Z
  M 190.6030 260.4154
  A 9.05 9.05 0.0 0 0 181.5847 251.3338
  L 179.4247 251.3263
  A 9.05 9.05 0.0 0 0 170.3432 260.3446
  L 170.3370 262.1246
  A 9.05 9.05 0.0 0 0 179.3553 271.2062
  L 181.5153 271.2137
  A 9.05 9.05 0.0 0 0 190.5968 262.1954
  L 190.6030 260.4154
  Z"
/>
<path fill="#4d321f" d="
  M 311.23 261.32
  A 15.77 15.77 0.0 0 1 295.46 277.09
  A 15.77 15.77 0.0 0 1 279.69 261.32
  A 15.77 15.77 0.0 0 1 295.46 245.55
  A 15.77 15.77 0.0 0 1 311.23 261.32
  Z
  M 305.41 261.29
  A 10.03 10.03 0.0 0 0 295.38 251.26
  A 10.03 10.03 0.0 0 0 285.35 261.29
  A 10.03 10.03 0.0 0 0 295.38 271.32
  A 10.03 10.03 0.0 0 0 305.41 261.29
  Z"
/>
<path fill="#4d321f" d="
  M 324.70 252.83
  C 328.07 246.51 334.46 243.96 341.15 246.61
  C 344.64 247.99 346.37 251.83 346.34 255.47
  Q 346.23 266.23 346.31 275.91
  Q 346.31 276.46 345.77 276.46
  L 341.00 276.45
  Q 340.50 276.45 340.50 275.95
  Q 340.45 268.41 340.54 259.83
  Q 340.58 256.03 339.45 254.28
  Q 337.15 250.70 332.91 251.54
  Q 324.07 253.31 324.11 261.79
  Q 324.15 268.32 324.10 275.81
  Q 324.09 276.43 323.47 276.44
  L 318.99 276.46
  Q 318.26 276.47 318.26 275.74
  L 318.27 246.96
  A 0.52 0.52 0.0 0 1 318.79 246.44
  L 322.95 246.40
  A 0.54 0.54 0.0 0 1 323.49 246.96
  Q 323.42 249.71 323.66 252.62
  Q 323.82 254.47 324.70 252.83
  Z"
/>
<path fill="#4d321f" d="
  M 405.47 266.25
  Q 411.62 274.72 421.33 268.82
  A 0.29 0.28 -37.3 0 1 421.67 268.86
  L 425.64 272.76
  Q 425.81 272.93 425.62 273.07
  Q 417.28 279.18 408.30 275.65
  C 395.33 270.55 395.56 253.11 407.76 247.15
  C 416.38 242.94 424.94 247.53 428.21 256.02
  A 0.49 0.49 0.0 0 1 427.93 256.65
  L 405.71 265.42
  A 0.55 0.54 -28.9 0 0 405.47 266.25
  Z
  M 404.90 261.99
  L 421.04 255.24
  A 0.01 0.01 0.0 0 0 421.05 255.22
  L 421.02 255.16
  A 8.67 6.80 -22.7 0 0 410.40 252.23
  L 410.23 252.30
  A 8.67 6.80 -22.7 0 0 404.86 261.92
  L 404.88 261.98
  A 0.01 0.01 0.0 0 0 404.90 261.99
  Z"
/>
<path fill="#4d321f" d="
  M 438.99 266.18
  Q 443.84 273.45 452.40 270.18
  Q 453.50 269.77 454.33 269.00
  Q 454.83 268.54 455.30 269.01
  L 458.84 272.47
  Q 459.33 272.95 458.77 273.34
  C 451.87 278.25 442.52 278.30 436.57 272.19
  C 428.80 264.21 431.54 251.30 441.74 246.87
  C 450.32 243.15 458.64 247.70 461.68 256.15
  A 0.39 0.38 -21.1 0 1 461.46 256.64
  L 439.23 265.41
  A 0.52 0.51 62.6 0 0 438.99 266.18
  Z
  M 438.44 262.02
  L 454.43 255.26
  A 0.11 0.11 0.0 0 0 454.49 255.12
  L 454.46 255.06
  A 8.69 6.73 -22.9 0 0 443.84 252.24
  L 443.66 252.32
  A 8.69 6.73 -22.9 0 0 438.27 261.90
  L 438.29 261.96
  A 0.11 0.11 0.0 0 0 438.44 262.02
  Z"
/>
<path fill="#4d321f" d="
  M 214.13 251.39
  C 209.23 250.97 208.92 256.06 212.76 257.76
  C 218.69 260.37 225.92 263.72 222.13 271.76
  C 218.89 278.64 208.94 277.94 203.80 273.84
  Q 203.17 273.35 203.68 272.73
  L 206.16 269.68
  Q 206.67 269.06 207.38 269.45
  Q 209.94 270.90 212.47 271.17
  C 216.09 271.55 219.67 267.47 215.42 265.15
  C 210.68 262.56 203.59 261.38 204.14 253.88
  C 204.83 244.55 215.24 244.05 221.51 248.61
  A 0.52 0.51 36.5 0 1 221.62 249.34
  L 219.16 252.65
  Q 218.97 252.91 218.69 252.75
  Q 216.58 251.60 214.13 251.39
  Z"
/>
<rect fill="#4d321f" x="266.75" y="246.39" width="6.00" height="30.06" rx="0.43"/>
<path fill="#4d321f" d="
  M 250.97 300.91
  C 251.92 300.38 252.69 299.80 253.79 299.60
  C 263.64 297.88 261.56 310.07 261.81 315.44
  Q 261.85 316.29 261.00 316.29
  L 259.54 316.27
  Q 258.92 316.27 258.92 315.65
  Q 258.95 311.34 258.90 306.61
  Q 258.85 302.12 254.62 302.07
  Q 254.61 302.07 254.31 302.06
  Q 250.16 302.00 250.17 306.16
  L 250.21 315.80
  Q 250.21 316.30 249.70 316.30
  L 247.82 316.28
  A 0.46 0.45 -90.0 0 1 247.37 315.82
  L 247.43 291.54
  Q 247.43 290.76 248.21 290.79
  L 249.52 290.83
  Q 250.19 290.85 250.19 291.52
  L 250.14 300.41
  Q 250.14 301.36 250.97 300.91
  Z"
/>
<rect fill="#4d321f" x="-1.40" y="-1.57" transform="translate(316.01,294.06) rotate(0.2)" width="2.80" height="3.14" rx="0.81"/>
<path fill="#4d321f" d="
  M 346.16 292.98
  A 0.42 0.42 0.0 0 1 346.58 292.55
  L 355.26 292.52
  A 11.50 11.17 -0.2 0 1 366.80 303.65
  L 366.80 305.09
  A 11.50 11.17 -0.2 0 1 355.34 316.30
  L 346.66 316.33
  A 0.42 0.42 0.0 0 1 346.24 315.92
  L 346.16 292.98
  Z
  M 349.01 295.73
  L 349.07 313.17
  A 0.55 0.55 0.0 0 0 349.62 313.71
  L 355.45 313.69
  A 8.24 8.08 89.8 0 0 363.50 305.42
  L 363.50 303.36
  A 8.24 8.08 89.8 0 0 355.39 295.15
  L 349.56 295.17
  A 0.55 0.55 0.0 0 0 349.01 295.73
  Z"
/>
<path fill="#4d321f" d="
  M 374.44 307.59
  L 374.48 315.77
  Q 374.48 316.27 373.98 316.27
  L 371.91 316.29
  Q 371.26 316.30 371.26 315.65
  L 371.29 293.06
  Q 371.29 292.45 371.90 292.47
  C 375.60 292.61 380.34 291.91 383.61 293.54
  C 388.25 295.84 388.61 303.62 383.59 305.97
  A 0.73 0.73 0.0 0 0 383.26 306.98
  L 388.02 315.77
  Q 388.27 316.24 387.74 316.25
  L 385.32 316.30
  Q 384.65 316.31 384.35 315.72
  L 380.09 307.50
  A 1.05 1.02 -12.7 0 0 379.18 306.94
  L 375.15 306.89
  Q 374.44 306.88 374.44 307.59
  Z
  M 374.44 295.74
  L 374.42 303.62
  A 0.66 0.66 0.0 0 0 375.08 304.28
  L 379.53 304.29
  A 4.47 4.21 0.1 0 0 384.01 300.09
  L 384.01 299.31
  A 4.47 4.21 0.1 0 0 379.55 295.09
  L 375.10 295.08
  A 0.66 0.66 0.0 0 0 374.44 295.74
  Z"
/>
<rect fill="#4d321f" x="392.23" y="292.51" width="3.00" height="23.78" rx="0.54"/>
<path fill="#4d321f" d="
  M 404.19 308.47
  L 404.18 315.79
  Q 404.18 316.25 403.71 316.26
  L 401.78 316.30
  Q 401.00 316.31 401.00 315.53
  L 401.01 293.03
  A 0.52 0.51 0.6 0 1 401.54 292.52
  C 408.03 292.63 417.39 290.86 416.80 301.06
  C 416.40 308.02 410.14 307.98 404.95 307.75
  Q 404.19 307.72 404.19 308.47
  Z
  M 404.13 295.45
  L 404.19 304.93
  A 0.37 0.37 0.0 0 0 404.57 305.30
  L 408.78 305.27
  A 4.98 4.36 -0.4 0 0 413.73 300.88
  L 413.71 299.38
  A 4.98 4.36 -0.4 0 0 408.70 295.05
  L 404.49 295.08
  A 0.37 0.37 0.0 0 0 404.13 295.45
  Z"
/>
<path fill="#4d321f" d="
  M 236.45 301.80
  L 234.90 301.83
  A 0.60 0.59 -86.3 0 1 234.30 301.14
  L 234.41 300.50
  A 0.87 0.86 -85.6 0 1 235.25 299.77
  L 236.56 299.74
  Q 237.19 299.72 237.20 299.09
  L 237.24 296.48
  Q 237.25 295.46 238.27 295.39
  L 239.04 295.33
  Q 240.14 295.25 239.95 296.34
  Q 239.69 297.81 239.96 299.23
  Q 240.05 299.75 240.59 299.75
  L 243.60 299.75
  Q 244.46 299.75 244.47 300.61
  L 244.47 300.92
  Q 244.48 301.82 243.58 301.83
  L 240.80 301.84
  A 0.94 0.93 -0.6 0 0 239.87 302.78
  L 239.94 312.68
  A 1.68 1.67 3.3 0 0 241.42 314.33
  L 243.54 314.58
  Q 244.14 314.65 244.26 315.24
  Q 244.53 316.53 243.23 316.69
  C 240.65 317.00 237.19 316.27 237.20 313.03
  Q 237.23 307.29 237.24 302.57
  A 0.77 0.77 0.0 0 0 236.45 301.80
  Z"
/>
<path fill="#4d321f" d="
  M 303.65 301.82
  L 302.13 301.79
  Q 301.56 301.78 301.55 301.21
  Q 301.55 300.60 301.85 300.09
  A 0.75 0.75 0.0 0 1 302.66 299.74
  Q 303.26 299.87 303.83 299.67
  Q 304.47 299.45 304.45 298.78
  L 304.41 296.49
  Q 304.39 295.61 305.26 295.47
  L 306.18 295.33
  Q 307.17 295.17 307.15 296.18
  L 307.07 298.90
  Q 307.05 299.75 307.90 299.75
  L 310.99 299.76
  Q 311.71 299.76 311.72 300.49
  L 311.73 301.06
  Q 311.74 301.86 310.94 301.86
  L 307.90 301.83
  A 0.77 0.76 -89.6 0 0 307.13 302.60
  L 307.19 312.77
  A 1.55 1.55 0.0 0 0 308.51 314.29
  L 310.93 314.66
  Q 311.47 314.74 311.57 315.28
  Q 311.79 316.48 310.62 316.65
  C 307.80 317.08 304.35 316.28 304.40 312.70
  Q 304.47 307.38 304.37 302.53
  Q 304.36 301.83 303.65 301.82
  Z"
/>
<path fill="#4d321f" d="
  M 208.40 306.11
  Q 210.32 306.12 209.71 304.31
  Q 209.66 304.16 209.63 304.01
  A 2.76 2.45 -1.6 0 0 207.25 302.01
  Q 204.45 301.71 202.14 302.92
  Q 201.68 303.16 201.52 302.67
  Q 201.33 302.12 201.32 301.53
  A 1.00 1.00 0.0 0 1 201.86 300.64
  C 206.02 298.48 211.87 298.58 212.36 304.54
  Q 212.67 308.20 212.63 312.04
  Q 212.61 313.99 214.38 314.64
  Q 214.72 314.76 214.76 315.12
  Q 214.83 315.80 214.47 316.30
  Q 214.17 316.71 213.66 316.74
  Q 211.81 316.86 210.70 315.29
  Q 210.00 314.30 209.05 315.04
  Q 207.27 316.44 205.03 316.70
  C 201.95 317.05 199.28 314.32 199.78 311.23
  C 200.37 307.52 205.35 306.08 208.40 306.11
  Z
  M 206.18 314.45
  C 209.85 313.56 210.13 311.62 209.78 308.46
  Q 209.73 307.97 209.24 307.95
  Q 206.83 307.85 204.61 308.77
  Q 202.25 309.74 202.63 312.54
  Q 202.66 312.77 202.77 312.98
  Q 203.91 315.00 206.18 314.45
  Z"
/>
<path fill="#4d321f" d="
  M 287.14 301.06
  C 290.60 299.15 295.05 298.16 297.52 301.94
  C 299.60 305.13 298.72 311.48 298.88 315.57
  A 0.69 0.69 0.0 0 1 298.19 316.28
  L 296.80 316.28
  Q 296.06 316.29 296.07 315.55
  L 296.10 306.18
  Q 296.12 302.00 291.94 301.98
  Q 290.82 301.98 290.64 301.98
  Q 286.69 301.96 286.72 305.71
  Q 286.75 310.41 286.77 315.74
  Q 286.77 316.29 286.23 316.28
  L 284.14 316.26
  Q 283.77 316.26 283.77 315.89
  L 283.80 300.48
  A 0.70 0.69 81.6 0 1 284.29 299.81
  Q 285.74 299.34 286.25 300.73
  Q 286.50 301.41 287.14 301.06
  Z"
/>
<path fill="#4d321f" d="
  M 324.10 306.12
  C 322.63 312.90 327.14 315.42 333.28 313.58
  Q 333.81 313.42 334.04 313.91
  Q 334.31 314.51 334.20 315.18
  Q 334.11 315.73 333.59 315.93
  C 317.87 321.91 315.94 295.24 333.40 299.91
  A 1.11 1.10 11.9 0 1 334.20 301.13
  L 334.09 301.83
  Q 333.97 302.66 333.16 302.43
  C 329.52 301.44 325.09 301.57 324.10 306.12
  Z"
/>
<path fill="#4d321f" d="
  M 270.00 307.83
  Q 267.07 307.81 268.52 310.36
  Q 268.79 310.85 269.10 311.38
  Q 270.58 314.00 273.59 314.10
  Q 276.11 314.19 278.56 313.58
  Q 279.55 313.33 279.55 314.35
  Q 279.55 314.49 279.58 314.62
  Q 279.74 315.33 279.09 315.62
  C 274.24 317.83 268.48 316.64 266.12 312.01
  C 264.30 308.42 265.11 303.36 268.42 300.93
  C 271.36 298.77 276.13 298.87 278.64 301.62
  Q 280.48 303.64 280.42 307.00
  Q 280.41 307.91 279.50 307.90
  L 270.00 307.83
  Z
  M 268.83 306.02
  L 277.33 305.86
  A 0.19 0.19 0.0 0 0 277.51 305.66
  L 277.51 305.57
  A 4.10 3.62 -1.1 0 0 273.34 302.03
  L 272.66 302.05
  A 4.10 3.62 -1.1 0 0 268.63 305.74
  L 268.63 305.83
  A 0.19 0.19 0.0 0 0 268.83 306.02
  Z"
/>
<path fill="#4d321f" d="
  M 228.48 310.71
  Q 228.43 305.85 228.40 300.55
  Q 228.40 299.74 229.21 299.74
  L 230.48 299.75
  Q 231.20 299.75 231.20 300.48
  L 231.21 315.79
  Q 231.21 316.28 230.71 316.29
  L 229.29 316.29
  Q 228.79 316.30 228.67 315.81
  Q 228.57 315.44 228.23 315.32
  Q 227.74 315.14 227.31 315.44
  C 224.36 317.56 220.16 317.06 218.48 314.04
  C 216.69 310.83 217.55 304.24 217.44 300.48
  Q 217.42 299.83 218.04 299.77
  Q 218.76 299.70 219.50 299.76
  A 0.74 0.74 0.0 0 1 220.20 300.50
  Q 220.17 304.60 220.29 309.59
  C 220.36 312.69 221.69 314.04 224.58 314.08
  Q 228.51 314.15 228.48 310.71
  Z"
/>
<rect fill="#4d321f" x="314.65" y="299.74" width="2.74" height="16.56" rx="0.57"/>
</svg>
